# xmcd
# Copyright (C) 1995-1998 Ti Kan
#
# Track frame offsets:
#       150
#       14883
#       23046
#       30342
#       43540
#       49675
#       55790
#       61832
#       70533
#       74845
#       99921
#
# Disc length: 1489 seconds
#
# Revision: 0
# Processed by: cddbd v1.5.2PL0 Copyright (c) Steve Scherf et al.
# Submitted via: CD-Import v1.0
#
DISCID=8c05cf0b
DTITLE=La Casa Fantom - Fredlos
DYEAR=1900
DGENRE=
TTITLE0=Point Of No Return
TTITLE1=Den Samme Gamle Oreia
TTITLE2=Do For Livet
TTITLE3=1=X2 and Y2
TTITLE4=Jeg Brenner Meg
TTITLE5=Min Mantra
TTITLE6=Kunststykke
TTITLE7=Smaken Av Metall
TTITLE8=Utbrent
TTITLE9=Fredlos
TTITLE10=Data Track
EXTD=
EXTT0=
EXTT1=
EXTT2=
EXTT3=
EXTT4=
EXTT5=
EXTT6=
EXTT7=
EXTT8=
EXTT9=
EXTT10=
PLAYORDER=
